<svg width="73" height="86" viewBox="0 0 73 86" fill="none" xmlns="http://www.w3.org/2000/svg">
<path fill-rule="evenodd" clip-rule="evenodd" d="M65.2613 0.941895C66.3798 1.39244 67.596 1.68861 68.5948 2.3282C70.7845 3.73026 71.8652 5.86013 72.0385 8.45C72.0542 8.6989 72.0542 8.94781 72.0542 9.19671C72.0542 28.4916 72.0574 47.7864 72.0542 67.0813C72.0542 70.5313 70.5482 73.0739 67.4353 74.6177C67.1454 74.7627 66.8209 74.8446 66.3609 75.0084C66.3609 74.561 66.3609 74.2176 66.3609 73.8742C66.3609 55.8806 66.3767 37.8869 66.3515 19.8933C66.342 14.1906 63.7175 10.0758 58.5346 7.65602C56.8301 6.8589 54.9932 6.6163 53.1186 6.6163C39.5548 6.61945 25.9911 6.61945 12.4242 6.61945C12.0965 6.61945 11.7688 6.61945 11.3435 6.61945C11.8634 4.80465 12.8054 3.37738 14.2989 2.45108C15.3575 1.79573 16.5957 1.4334 17.7552 0.941895C33.5906 0.941895 49.4259 0.941895 65.2613 0.941895Z" fill="white" fill-opacity="0.3"/>
<path fill-rule="evenodd" clip-rule="evenodd" d="M61.3766 48.8515C61.3766 58.458 61.3703 68.0645 61.3798 77.6709C61.3829 80.8973 60.151 83.4777 57.2587 84.9932C56.1496 85.5729 54.7917 85.9478 53.544 85.951C38.4018 86.014 23.2564 86.0077 8.11098 85.9793C3.8859 85.973 0.539867 82.6711 0.338222 78.4523C0.325619 78.2034 0.325619 77.9545 0.325619 77.7056C0.325619 58.436 0.322468 39.1663 0.325619 19.8998C0.325619 15.826 2.65398 12.7194 6.39385 11.8435C7.11221 11.6734 7.87468 11.6166 8.6151 11.6166C23.4265 11.604 38.2379 11.604 53.0493 11.6103C58.0495 11.6103 61.3672 14.928 61.3703 19.9502C61.3861 29.5819 61.3766 39.2167 61.3766 48.8515ZM50.68 43.4796C50.68 40.2691 50.6548 37.0585 50.6926 33.8511C50.7084 32.5751 50.2043 31.7149 49.1047 31.0848C43.5405 27.8963 37.9859 24.6889 32.4438 21.4657C31.3505 20.8293 30.3517 20.8387 29.2521 21.4783C23.7101 24.7078 18.1554 27.9089 12.5881 31.0942C11.5169 31.7086 10.997 32.553 11.0002 33.7849C11.0128 40.2312 11.0128 46.6807 11.0002 53.127C10.997 54.3558 11.4948 55.2128 12.5692 55.8303C18.1585 59.0314 23.7353 62.2514 29.3026 65.4904C30.3738 66.1142 31.36 66.1048 32.4217 65.4872C37.967 62.2672 43.5185 59.0566 49.0826 55.8713C50.2137 55.2223 50.7115 54.3369 50.6926 53.0294C50.6517 49.8472 50.68 46.6618 50.68 43.4796ZM30.8811 70.3487C27.1191 70.3487 23.354 70.3487 19.5921 70.3487C17.5158 70.3487 15.4395 70.3267 13.3663 70.3708C12.062 70.3991 11.142 71.3538 11.0569 72.633C10.9718 73.9468 11.7154 74.9677 12.9883 75.2355C13.3348 75.3079 13.7003 75.33 14.0595 75.33C25.2665 75.3331 36.4735 75.3331 47.6806 75.33C47.983 75.33 48.2918 75.3237 48.588 75.2701C49.9301 75.0275 50.7115 74.0445 50.658 72.6897C50.6012 71.2687 49.5804 70.355 47.9862 70.355C42.2834 70.3456 36.5807 70.3519 30.8811 70.3487Z" fill="white"/>
<path fill-rule="evenodd" clip-rule="evenodd" d="M45.6956 43.4575C45.6956 46.06 45.683 48.6624 45.7082 51.2617C45.7145 51.8163 45.5728 52.1534 45.0592 52.4433C40.519 55.03 35.9915 57.6419 31.4797 60.2759C30.9945 60.5594 30.6668 60.5216 30.2131 60.257C25.695 57.6293 21.1706 55.0174 16.6336 52.4212C16.1736 52.1597 15.972 51.8793 15.9751 51.3248C15.9972 46.0946 15.9972 40.8613 15.9751 35.6312C15.972 35.0892 16.139 34.7899 16.6116 34.5221C21.1738 31.9165 25.7234 29.2888 30.2635 26.6454C30.7046 26.387 31.0166 26.3933 31.4545 26.6485C35.9947 29.292 40.5474 31.9133 45.1065 34.5221C45.5476 34.7742 45.7082 35.0577 45.7051 35.5681C45.683 38.199 45.6956 40.8298 45.6956 43.4575ZM30.6731 31.6581C29.9579 31.6739 29.2679 32.0268 28.7859 32.742C26.7127 35.8422 24.6396 38.9457 22.579 42.0554C21.9709 42.9754 21.9615 43.9427 22.5695 44.8627C24.6269 47.9756 26.6812 51.0885 28.7796 54.1761C29.8098 55.6916 31.8798 55.7011 32.907 54.1887C35.0085 51.1042 37.0659 47.9945 39.1201 44.8816C39.7251 43.9679 39.7345 42.988 39.1296 42.0712C37.0596 38.9362 34.9675 35.8107 32.8755 32.6916C32.3966 31.9732 31.6814 31.655 30.6731 31.6581Z" fill="white"/>
<path fill-rule="evenodd" clip-rule="evenodd" d="M30.8557 38.6208C31.9207 40.2214 32.9194 41.7085 33.8962 43.2114C33.9749 43.3343 33.9781 43.5989 33.8993 43.7187C32.9226 45.2216 31.9238 46.7087 30.8557 48.3155C29.7877 46.715 28.7763 45.2153 27.7964 43.6935C27.7145 43.5643 27.7775 43.2587 27.8783 43.1043C28.8267 41.6487 29.8003 40.2056 30.8557 38.6208Z" fill="white"/>
</svg>
