<svg width="90" height="90" viewBox="0 0 90 90" fill="none" xmlns="http://www.w3.org/2000/svg">
<path fill-rule="evenodd" clip-rule="evenodd" d="M0.00686321 82.8987C0.521592 82.2399 0.974554 81.5227 1.56134 80.9359C12.2231 70.2501 22.902 59.5815 33.5603 48.8957C34.0236 48.429 34.4422 48.2883 35.0942 48.3879C36.7688 48.6452 38.4571 48.8305 40.142 48.9918C40.6876 49.0433 40.8832 49.2423 40.9347 49.7879C41.1131 51.562 41.3739 53.3258 41.5386 55.1034C41.5695 55.4499 41.4322 55.9235 41.192 56.1637C30.266 67.124 19.3229 78.0637 8.36949 88.9965C7.98859 89.374 7.47729 89.6211 7.02433 89.9299C6.61598 89.9299 6.2042 89.9299 5.79585 89.9299C5.29141 89.597 4.73207 89.326 4.29284 88.921C3.32858 88.0323 2.39177 87.1058 1.50644 86.1346C0.947102 85.5204 0.497571 84.8032 0 84.1341C0.00686305 83.7188 0.00686321 83.3071 0.00686321 82.8987Z" fill="white" fill-opacity="0.3"/>
<path fill-rule="evenodd" clip-rule="evenodd" d="M89.93 41.9779C88.9486 43.8789 88.0358 44.277 85.9426 43.7245C84.5871 43.3642 83.2317 43.0073 81.8762 42.6402C80.1673 42.1769 79.2511 40.8112 79.6595 39.3322C80.0815 37.8017 81.4816 37.0914 83.2042 37.5444C84.5597 37.9012 85.9014 38.3199 87.2706 38.6116C88.5471 38.8826 89.453 39.5243 89.9266 40.7494C89.93 41.1578 89.93 41.5661 89.93 41.9779Z" fill="white"/>
<path fill-rule="evenodd" clip-rule="evenodd" d="M49.1839 0C50.4124 0.47355 51.0473 1.3829 51.3218 2.65943C51.6237 4.05606 52.0561 5.42524 52.4164 6.81158C52.8419 8.45184 52.0973 9.85877 50.5977 10.2706C49.1736 10.6617 47.801 9.8073 47.3515 8.21507C46.9534 6.81158 46.5828 5.39779 46.2088 3.984C45.6529 1.88391 46.051 0.977984 47.9555 0C48.3638 0 48.7756 0 49.1839 0Z" fill="white"/>
<path fill-rule="evenodd" clip-rule="evenodd" d="M41.4871 29.065C39.5895 24.6417 37.7296 20.2906 35.8526 15.9463C35.4614 15.0369 35.331 14.1584 35.8388 13.2559C36.5251 12.0378 37.9115 11.5985 39.3424 12.2059C43.1892 13.8393 47.0222 15.4933 50.8621 17.137C51.4488 17.3875 52.0356 17.6346 52.6705 17.9022C54.0396 16.0767 55.3882 14.2751 56.7334 12.4736C58.2398 10.4593 59.7428 8.44151 61.2561 6.43064C62.1243 5.27765 63.1503 4.8693 64.2793 5.20216C65.4495 5.54874 66.0603 6.38946 66.2284 7.82727C66.7534 12.2985 67.2991 16.7698 67.8104 21.2445C67.8756 21.8039 68.0746 22.0475 68.6545 22.1127C73.1601 22.6274 77.6588 23.1696 82.161 23.7015C83.5645 23.8662 84.4464 24.5251 84.7346 25.7089C85.0435 26.9752 84.5219 27.9154 83.5164 28.6635C79.9271 31.3366 76.348 34.0235 72.7655 36.707C72.5356 36.882 72.3056 37.0604 72.0243 37.28C73.1086 39.8159 74.1861 42.3313 75.2671 44.85C76.0494 46.6756 76.8147 48.5114 77.6245 50.3267C78.1598 51.5312 78.1941 52.6533 77.2402 53.6587C76.4098 54.5303 75.3014 54.6401 73.9185 54.0465C69.7595 52.2587 65.597 50.4708 61.438 48.6864C61.2561 48.6075 61.064 48.5457 60.8341 48.4599C58.7889 51.1949 56.7574 53.9092 54.726 56.6236C53.8852 57.7491 53.0376 58.8678 52.2003 59.9967C51.4729 60.9747 50.5429 61.462 49.311 61.16C48.1512 60.8786 47.4477 60.0345 47.2864 58.6928C46.7442 54.194 46.1986 49.6919 45.6976 45.1863C45.6255 44.5377 45.4334 44.3112 44.7677 44.2357C40.2621 43.7382 35.7633 43.1926 31.2612 42.6504C29.9229 42.4891 29.0719 41.7959 28.7802 40.6395C28.4679 39.4076 28.9483 38.4776 29.9263 37.7467C33.5363 35.0496 37.1428 32.3489 40.7494 29.6518C40.9793 29.4733 41.2023 29.288 41.4871 29.065Z" fill="white"/>
<path fill-rule="evenodd" clip-rule="evenodd" d="M81.8968 10.926C81.5742 11.5265 81.3546 12.2197 80.912 12.7069C79.7727 13.9629 78.5476 15.1433 77.326 16.3203C76.1456 17.4596 74.5396 17.4562 73.4861 16.3615C72.4567 15.2909 72.4979 13.7364 73.62 12.5868C74.8244 11.3515 76.0426 10.123 77.2883 8.93225C78.1324 8.12584 79.1619 7.97829 80.2188 8.45184C81.2242 8.89793 81.6978 9.73866 81.8968 10.926Z" fill="white"/>
<path fill-rule="evenodd" clip-rule="evenodd" d="M33.924 26.4057C33.9138 28.0494 32.3867 29.3019 30.7533 28.9175C28.9655 28.4955 27.1914 28.015 25.4345 27.4866C24.0413 27.0645 23.3206 25.6507 23.6981 24.2953C24.079 22.9295 25.4036 22.1094 26.8208 22.4525C28.5777 22.878 30.3244 23.3447 32.0573 23.8526C33.2721 24.2095 33.9309 25.1806 33.924 26.4057Z" fill="white"/>
<path fill-rule="evenodd" clip-rule="evenodd" d="M63.5484 56.0093C64.7323 56.0059 65.7137 56.651 66.0568 57.8143C66.5853 59.6021 67.0725 61.4071 67.5015 63.2189C67.8138 64.5332 66.9799 65.8337 65.6965 66.2215C64.4097 66.6093 62.965 66.0088 62.5429 64.7151C61.9321 62.8312 61.4002 60.9164 60.9919 58.981C60.6625 57.4196 61.9699 56.0127 63.5484 56.0093Z" fill="white"/>
</svg>
