<svg width="1920" height="560" viewBox="0 0 1920 560" fill="none" xmlns="http://www.w3.org/2000/svg">
<g opacity="0.7" filter="url(#filter0_bdi_34_979)">
<path d="M1920 560H0C0 560 0 264.144 0 178.422C0 -185.041 1920 142.454 1920 142.454V560Z" fill="url(#paint0_linear_34_979)" shape-rendering="crispEdges"/>
<path d="M1919.5 559.5H0.5V559.436V559.347V559.251V559.149V559.04V558.925V558.804V558.676V558.542V558.401V558.255V558.102V557.943V557.777V557.606V557.428V557.244V557.055V556.859V556.656V556.448V556.234V556.014V555.788V555.556V555.318V555.074V554.824V554.568V554.307V554.039V553.766V553.487V553.203V552.912V552.616V552.314V552.007V551.694V551.375V551.051V550.721V550.385V550.044V549.698V549.346V548.988V548.625V548.257V547.883V547.504V547.12V546.73V546.335V545.935V545.529V545.119V544.703V544.281V543.855V543.424V542.987V542.545V542.099V541.647V541.19V540.728V540.261V539.789V539.313V538.831V538.344V537.853V537.357V536.855V536.349V535.839V535.323V534.803V534.278V533.749V533.214V532.675V532.132V531.584V531.031V530.474V529.912V529.346V528.775V528.2V527.62V527.036V526.447V525.854V525.257V524.655V524.05V523.439V522.825V522.206V521.583V520.956V520.325V519.69V519.05V518.407V517.759V517.107V516.451V515.792V515.128V514.46V513.788V513.113V512.433V511.75V511.063V510.371V509.677V508.978V508.275V507.569V506.859V506.146V505.428V504.708V503.983V503.255V502.523V501.788V501.049V500.307V499.561V498.811V498.059V497.303V496.543V495.78V495.014V494.244V493.471V492.695V491.915V491.133V490.347V489.557V488.765V487.97V487.171V486.369V485.564V484.757V483.946V483.132V482.315V481.495V480.672V479.846V479.018V478.186V477.352V476.514V475.674V474.831V473.986V473.137V472.286V471.432V470.576V469.717V468.855V467.991V467.124V466.254V465.382V464.508V463.631V462.751V461.869V460.985V460.098V459.208V458.317V457.423V456.527V455.628V454.727V453.824V452.919V452.012V451.102V450.19V449.276V448.36V447.442V446.522V445.599V444.675V443.749V442.821V441.89V440.958V440.024V439.088V438.15V437.211V436.269V435.326V434.381V433.434V432.486V431.536V430.584V429.63V428.675V427.718V426.76V425.8V424.838V423.875V422.911V421.945V420.977V420.008V419.038V418.066V417.093V416.119V415.143V414.166V413.188V412.208V411.227V410.245V409.262V408.278V407.292V406.306V405.318V404.329V403.34V402.349V401.357V400.364V399.37V398.376V397.38V396.383V395.386V394.388V393.389V392.389V391.388V390.387V389.385V388.382V387.378V386.374V385.369V384.364V383.358V382.351V381.344V380.337V379.328V378.32V377.311V376.301V375.291V374.281V373.27V372.259V371.247V370.236V369.223V368.211V367.199V366.186V365.173V364.16V363.147V362.133V361.12V360.107V359.093V358.079V357.066V356.052V355.039V354.025V353.012V351.998V350.985V349.972V348.959V347.947V346.934V345.922V344.91V343.898V342.887V341.876V340.865V339.855V338.845V337.836V336.827V335.818V334.81V333.803V332.795V331.789V330.783V329.778V328.773V327.769V326.766V325.763V324.761V323.76V322.76V321.76V320.761V319.763V318.766V317.77V316.774V315.78V314.786V313.794V312.802V311.812V310.822V309.834V308.846V307.86V306.875V305.891V304.908V303.926V302.946V301.966V300.988V300.012V299.036V298.062V297.089V296.118V295.148V294.18V293.213V292.247V291.283V290.32V289.359V288.399V287.441V286.485V285.53V284.577V283.626V282.676V281.728V280.782V279.837V278.894V277.953V277.014V276.077V275.141V274.208V273.276V272.346V271.419V270.493V269.569V268.647V267.728V266.81V265.895V264.981V264.07V263.161V262.254V261.349V260.447V259.547V258.649V257.753V256.86V255.969V255.08V254.194V253.31V252.429V251.55V250.673V249.799V248.928V248.059V247.193V246.329V245.468V244.61V243.754V242.901V242.05V241.203V240.358V239.516V238.676V237.84V237.006V236.175V235.347V234.522V233.7V232.881V232.065V231.252V230.442V229.634V228.83V228.03V227.232V226.437V225.645V224.857V224.072V223.29V222.511V221.736V220.964V220.195V219.43V218.668V217.909V217.154V216.402V215.653V214.908V214.167V213.429V212.695V211.964V211.237V210.513V209.793V209.077V208.364V207.655V206.95V206.249V205.551V204.857V204.167V203.481V202.798V202.12V201.445V200.774V200.108V199.445V198.786V198.131V197.481V196.834V196.191V195.553V194.919V194.288V193.663V193.041V192.423V191.81V191.201V190.596V189.996V189.399V188.808V188.22V187.637V187.059V186.485V185.915V185.35V184.789V184.233V183.682V183.135V182.592V182.055V181.521V180.993V180.469V179.95V179.436V178.927V178.422C0.5 133.264 30.3007 98.7618 82.7207 72.9716C135.143 47.1801 210.075 30.1655 300.056 19.9629C480.008 -0.440918 719.969 6.41809 959.962 24.638C1199.95 42.8574 1439.94 72.4345 1619.93 97.4573C1709.93 109.969 1784.92 121.341 1837.42 129.586C1863.67 133.708 1884.3 137.049 1898.36 139.358C1905.39 140.513 1910.78 141.41 1914.41 142.019C1916.23 142.323 1917.6 142.555 1918.53 142.711C1918.94 142.782 1919.27 142.837 1919.5 142.876V559.5Z" stroke="url(#paint1_linear_34_979)" shape-rendering="crispEdges"/>
</g>
<defs>
<filter id="filter0_bdi_34_979" x="-30" y="-23" width="1980" height="613" filterUnits="userSpaceOnUse" color-interpolation-filters="sRGB">
<feFlood flood-opacity="0" result="BackgroundImageFix"/>
<feGaussianBlur in="BackgroundImage" stdDeviation="15"/>
<feComposite in2="SourceAlpha" operator="in" result="effect1_backgroundBlur_34_979"/>
<feColorMatrix in="SourceAlpha" type="matrix" values="0 0 0 0 0 0 0 0 0 0 0 0 0 0 0 0 0 0 127 0" result="hardAlpha"/>
<feOffset dy="7"/>
<feGaussianBlur stdDeviation="7"/>
<feComposite in2="hardAlpha" operator="out"/>
<feColorMatrix type="matrix" values="0 0 0 0 0 0 0 0 0 0 0 0 0 0 0 0 0 0 0.1 0"/>
<feBlend mode="normal" in2="effect1_backgroundBlur_34_979" result="effect2_dropShadow_34_979"/>
<feBlend mode="normal" in="SourceGraphic" in2="effect2_dropShadow_34_979" result="shape"/>
<feColorMatrix in="SourceAlpha" type="matrix" values="0 0 0 0 0 0 0 0 0 0 0 0 0 0 0 0 0 0 127 0" result="hardAlpha"/>
<feOffset dy="14"/>
<feGaussianBlur stdDeviation="12"/>
<feComposite in2="hardAlpha" operator="arithmetic" k2="-1" k3="1"/>
<feColorMatrix type="matrix" values="0 0 0 0 0.0670312 0 0 0 0 0.0775564 0 0 0 0 0.1125 0 0 0 0.4 0"/>
<feBlend mode="normal" in2="shape" result="effect3_innerShadow_34_979"/>
</filter>
<linearGradient id="paint0_linear_34_979" x1="960" y1="560" x2="960" y2="7" gradientUnits="userSpaceOnUse">
<stop stop-color="white" stop-opacity="0.06"/>
<stop offset="1" stop-color="white" stop-opacity="0.06"/>
</linearGradient>
<linearGradient id="paint1_linear_34_979" x1="1903.78" y1="550.969" x2="676.427" y2="-671.906" gradientUnits="userSpaceOnUse">
<stop stop-color="white"/>
<stop offset="1" stop-color="white" stop-opacity="0"/>
</linearGradient>
</defs>
</svg>
