<svg width="169" height="56" viewBox="0 0 169 56" fill="none" xmlns="http://www.w3.org/2000/svg">
<path d="M56 28C56 43.4631 43.4631 56 28 56C12.5369 56 0 43.4631 0 28C0 12.5369 12.5369 0 28 0C43.4664 0 56 12.5369 56 28Z" fill="white" fill-opacity="0.12"/>
<path d="M13.8144 28.941L13.9352 28.7511L21.2191 17.3563C21.3256 17.1895 21.5759 17.2067 21.6564 17.3879C22.8733 20.1151 23.9233 23.5068 23.4314 25.6183C23.2214 26.4871 22.646 27.6637 21.9987 28.7511C21.9153 28.9093 21.8233 29.0647 21.7254 29.2142C21.6794 29.2833 21.6017 29.3236 21.5183 29.3236H14.0273C13.8259 29.3236 13.708 29.1049 13.8144 28.941Z" fill="white" fill-opacity="0.5"/>
<path d="M46.2814 31.0581V32.8618C46.2814 32.9654 46.2181 33.0574 46.126 33.0977C45.5622 33.3393 43.6319 34.2254 42.8293 35.3416C40.781 38.1924 39.2161 42.2688 35.718 42.2688H21.1243C15.9519 42.2688 11.7605 38.063 11.7605 32.8733V32.7065C11.7605 32.5684 11.8727 32.4562 12.0108 32.4562H20.1462C20.3073 32.4562 20.4252 32.6058 20.4109 32.764C20.3533 33.2933 20.4511 33.8341 20.7014 34.326C21.1847 35.3071 22.1858 35.9198 23.2674 35.9198H27.2949V32.7755H23.3135C23.1092 32.7755 22.9884 32.5396 23.1064 32.3728C23.1495 32.3066 23.1984 32.2376 23.2502 32.1599C23.6271 31.6248 24.165 30.7935 24.7001 29.847C25.0654 29.2084 25.4192 28.5266 25.7041 27.8419C25.7616 27.7182 25.8076 27.5916 25.8536 27.4679C25.9313 27.2493 26.0119 27.045 26.0694 26.8408C26.127 26.6682 26.1729 26.4869 26.219 26.3172C26.3542 25.7361 26.4117 25.1205 26.4117 24.4819C26.4117 24.2316 26.4002 23.9698 26.3772 23.7195C26.3657 23.4463 26.3312 23.1729 26.2966 22.8996C26.2736 22.658 26.2305 22.4192 26.1845 22.169C26.127 21.8036 26.0464 21.4412 25.9543 21.0758L25.9227 20.9377C25.8536 20.6874 25.7961 20.4487 25.7156 20.1984C25.4883 19.413 25.2265 18.6478 24.9503 17.9315C24.8497 17.6467 24.7346 17.3734 24.6195 17.1002C24.4498 16.6888 24.2772 16.3148 24.119 15.961C24.0384 15.7998 23.9694 15.6531 23.9003 15.5036C23.8227 15.3338 23.7421 15.1641 23.6616 15.003C23.604 14.8793 23.5379 14.7642 23.4918 14.6492L22.9999 13.7401C22.9309 13.6164 23.046 13.4697 23.1811 13.5071L26.2593 14.3413H26.2679C26.2736 14.3413 26.2765 14.3442 26.2794 14.3442L26.685 14.4564L27.1309 14.583L27.2949 14.629V12.7994C27.2949 11.9162 28.0026 11.2 28.8771 11.2C29.3144 11.2 29.7114 11.3783 29.9962 11.6688C30.2809 11.9594 30.4593 12.3564 30.4593 12.7994V15.5151L30.7873 15.6071C30.8132 15.6158 30.839 15.6273 30.862 15.6445C30.9426 15.7049 31.0576 15.7941 31.2044 15.9034C31.3195 15.9955 31.4432 16.1077 31.5927 16.2228C31.889 16.4615 32.2429 16.7693 32.6313 17.1232C32.7348 17.2123 32.8355 17.3044 32.9275 17.3965C33.4281 17.8625 33.9891 18.4091 34.5242 19.0132C34.6737 19.1829 34.8205 19.3555 34.97 19.5367C35.1196 19.7209 35.2779 19.9021 35.4159 20.0833C35.5972 20.325 35.7928 20.5752 35.9625 20.837C36.0431 20.9608 36.1351 21.0873 36.2128 21.211C36.4314 21.5418 36.6242 21.8842 36.8083 22.2265C36.886 22.3847 36.9665 22.5573 37.0355 22.727C37.2398 23.1845 37.4009 23.6505 37.5044 24.1165C37.5361 24.2172 37.5591 24.3265 37.5706 24.4244V24.4474C37.6051 24.5854 37.6166 24.7321 37.6281 24.8817C37.6742 25.3593 37.6511 25.8368 37.5476 26.3172C37.5044 26.5215 37.4469 26.7142 37.3779 26.9185C37.3088 27.1141 37.2398 27.3183 37.1506 27.5111C36.978 27.9109 36.7737 28.3108 36.5321 28.6848C36.4544 28.8229 36.3624 28.9696 36.2703 29.1077C36.1696 29.2544 36.0661 29.3924 35.974 29.5277C35.8474 29.7003 35.7123 29.8815 35.5742 30.0426C35.4505 30.2123 35.3239 30.3821 35.1858 30.5317C34.993 30.7589 34.8089 30.9747 34.6162 31.1818C34.5011 31.317 34.3774 31.4551 34.2508 31.5788C34.1272 31.7168 34.0006 31.8405 33.8855 31.9556C33.6928 32.1484 33.5317 32.298 33.3964 32.4217L33.08 32.7122C33.034 32.7525 32.9736 32.7755 32.9103 32.7755H30.4593V35.9198H33.5432C34.2336 35.9198 34.8895 35.6753 35.4188 35.2265C35.6 35.0683 36.3911 34.3836 37.3261 33.3509C37.3577 33.3163 37.398 33.2904 37.4441 33.279L45.9621 30.8165C46.1203 30.7704 46.2814 30.8912 46.2814 31.0581Z" fill="white" fill-opacity="0.5"/>
<path opacity="0.4" d="M77.36 36.216C75.712 36.216 74.28 35.864 73.064 35.16C71.864 34.456 70.936 33.448 70.28 32.136C69.624 30.824 69.296 29.288 69.296 27.528C69.296 25.768 69.616 24.24 70.256 22.944C70.912 21.632 71.848 20.624 73.064 19.92C74.28 19.216 75.712 18.864 77.36 18.864C79.008 18.864 80.432 19.216 81.632 19.92C82.848 20.624 83.776 21.632 84.416 22.944C85.072 24.24 85.4 25.768 85.4 27.528C85.4 29.288 85.072 30.824 84.416 32.136C83.76 33.448 82.824 34.456 81.608 35.16C80.408 35.864 78.992 36.216 77.36 36.216ZM77.36 33.744C78.912 33.744 80.12 33.208 80.984 32.136C81.864 31.064 82.304 29.528 82.304 27.528C82.304 25.528 81.864 24 80.984 22.944C80.12 21.872 78.912 21.336 77.36 21.336C75.792 21.336 74.568 21.872 73.688 22.944C72.824 24 72.392 25.528 72.392 27.528C72.392 29.528 72.824 31.064 73.688 32.136C74.568 33.208 75.792 33.744 77.36 33.744ZM95.0071 23.976C96.0151 23.976 96.9111 24.232 97.6951 24.744C98.4951 25.256 99.1111 25.984 99.5431 26.928C99.9911 27.856 100.215 28.928 100.215 30.144C100.215 31.36 99.9911 32.424 99.5431 33.336C99.1111 34.248 98.5031 34.952 97.7191 35.448C96.9351 35.944 96.0311 36.192 95.0071 36.192C94.1751 36.192 93.4311 36.016 92.7751 35.664C92.1191 35.312 91.6151 34.824 91.2631 34.2V39.096C91.2631 39.512 91.1271 39.84 90.8551 40.08C90.5831 40.32 90.2231 40.44 89.7751 40.44C89.3271 40.44 88.9591 40.312 88.6711 40.056C88.3991 39.8 88.2631 39.464 88.2631 39.048V25.44C88.2631 25.008 88.3911 24.664 88.6471 24.408C88.9191 24.152 89.2791 24.024 89.7271 24.024C90.1751 24.024 90.5351 24.152 90.8071 24.408C91.0791 24.664 91.2151 25.008 91.2151 25.44V26.04C91.5671 25.384 92.0711 24.88 92.7271 24.528C93.3991 24.16 94.1591 23.976 95.0071 23.976ZM94.2151 33.864C95.1591 33.864 95.8951 33.544 96.4231 32.904C96.9511 32.248 97.2151 31.328 97.2151 30.144C97.2151 28.928 96.9511 27.984 96.4231 27.312C95.8951 26.64 95.1591 26.304 94.2151 26.304C93.2551 26.304 92.5111 26.632 91.9831 27.288C91.4711 27.944 91.2151 28.88 91.2151 30.096C91.2151 31.296 91.4711 32.224 91.9831 32.88C92.5111 33.536 93.2551 33.864 94.2151 33.864ZM111.965 32.784C112.237 32.784 112.453 32.888 112.613 33.096C112.789 33.304 112.877 33.584 112.877 33.936C112.877 34.432 112.581 34.848 111.989 35.184C111.445 35.488 110.829 35.736 110.141 35.928C109.453 36.104 108.797 36.192 108.173 36.192C106.285 36.192 104.789 35.648 103.685 34.56C102.581 33.472 102.029 31.984 102.029 30.096C102.029 28.896 102.269 27.832 102.749 26.904C103.229 25.976 103.901 25.256 104.765 24.744C105.645 24.232 106.637 23.976 107.741 23.976C108.797 23.976 109.717 24.208 110.501 24.672C111.285 25.136 111.893 25.792 112.325 26.64C112.757 27.488 112.973 28.488 112.973 29.64C112.973 30.328 112.669 30.672 112.061 30.672H104.981C105.077 31.776 105.389 32.592 105.917 33.12C106.445 33.632 107.213 33.888 108.221 33.888C108.733 33.888 109.181 33.824 109.565 33.696C109.965 33.568 110.413 33.392 110.909 33.168C111.389 32.912 111.741 32.784 111.965 32.784ZM107.813 26.088C106.997 26.088 106.341 26.344 105.845 26.856C105.365 27.368 105.077 28.104 104.981 29.064H110.405C110.373 28.088 110.133 27.352 109.685 26.856C109.237 26.344 108.613 26.088 107.813 26.088ZM122.243 23.976C123.651 23.976 124.699 24.376 125.387 25.176C126.075 25.976 126.419 27.184 126.419 28.8V34.704C126.419 35.152 126.283 35.504 126.011 35.76C125.755 36.016 125.395 36.144 124.931 36.144C124.467 36.144 124.099 36.016 123.827 35.76C123.555 35.504 123.419 35.152 123.419 34.704V28.968C123.419 28.056 123.243 27.392 122.891 26.976C122.555 26.56 122.019 26.352 121.283 26.352C120.419 26.352 119.723 26.624 119.195 27.168C118.683 27.712 118.427 28.44 118.427 29.352V34.704C118.427 35.152 118.291 35.504 118.019 35.76C117.747 36.016 117.379 36.144 116.915 36.144C116.451 36.144 116.083 36.016 115.811 35.76C115.555 35.504 115.427 35.152 115.427 34.704V25.416C115.427 25 115.563 24.664 115.835 24.408C116.107 24.152 116.475 24.024 116.939 24.024C117.355 24.024 117.691 24.152 117.947 24.408C118.219 24.648 118.355 24.968 118.355 25.368V26.016C118.755 25.36 119.291 24.856 119.963 24.504C120.635 24.152 121.395 23.976 122.243 23.976ZM135.586 36.216C134.354 36.216 133.186 36.056 132.082 35.736C130.994 35.4 130.106 34.952 129.418 34.392C129.05 34.12 128.866 33.736 128.866 33.24C128.866 32.904 128.962 32.616 129.154 32.376C129.362 32.12 129.602 31.992 129.874 31.992C130.162 31.992 130.49 32.104 130.858 32.328C131.546 32.824 132.266 33.184 133.018 33.408C133.77 33.632 134.602 33.744 135.514 33.744C136.682 33.744 137.578 33.544 138.202 33.144C138.826 32.728 139.138 32.128 139.138 31.344C139.138 30.736 138.842 30.272 138.25 29.952C137.674 29.616 136.706 29.296 135.346 28.992C133.938 28.688 132.794 28.336 131.914 27.936C131.034 27.536 130.37 27.024 129.922 26.4C129.474 25.776 129.25 24.984 129.25 24.024C129.25 23.032 129.53 22.144 130.09 21.36C130.65 20.576 131.426 19.968 132.418 19.536C133.426 19.088 134.554 18.864 135.802 18.864C138.09 18.864 139.954 19.472 141.394 20.688C141.602 20.864 141.746 21.04 141.826 21.216C141.922 21.376 141.97 21.584 141.97 21.84C141.97 22.176 141.866 22.472 141.658 22.728C141.466 22.968 141.234 23.088 140.962 23.088C140.802 23.088 140.65 23.064 140.506 23.016C140.378 22.968 140.202 22.88 139.978 22.752C139.322 22.272 138.682 21.92 138.058 21.696C137.45 21.456 136.698 21.336 135.802 21.336C134.714 21.336 133.85 21.56 133.21 22.008C132.586 22.44 132.274 23.048 132.274 23.832C132.274 24.488 132.554 24.992 133.114 25.344C133.674 25.696 134.626 26.024 135.97 26.328C137.394 26.648 138.546 27.008 139.426 27.408C140.322 27.792 141.002 28.288 141.466 28.896C141.946 29.504 142.186 30.264 142.186 31.176C142.186 32.168 141.906 33.048 141.346 33.816C140.802 34.568 140.026 35.16 139.018 35.592C138.026 36.008 136.882 36.216 135.586 36.216ZM154.059 32.784C154.331 32.784 154.547 32.888 154.707 33.096C154.883 33.304 154.971 33.584 154.971 33.936C154.971 34.432 154.675 34.848 154.083 35.184C153.539 35.488 152.923 35.736 152.235 35.928C151.547 36.104 150.891 36.192 150.267 36.192C148.379 36.192 146.883 35.648 145.779 34.56C144.675 33.472 144.123 31.984 144.123 30.096C144.123 28.896 144.363 27.832 144.843 26.904C145.323 25.976 145.995 25.256 146.859 24.744C147.739 24.232 148.731 23.976 149.835 23.976C150.891 23.976 151.811 24.208 152.595 24.672C153.379 25.136 153.987 25.792 154.419 26.64C154.851 27.488 155.067 28.488 155.067 29.64C155.067 30.328 154.763 30.672 154.155 30.672H147.075C147.171 31.776 147.483 32.592 148.011 33.12C148.539 33.632 149.307 33.888 150.315 33.888C150.827 33.888 151.275 33.824 151.659 33.696C152.059 33.568 152.507 33.392 153.003 33.168C153.483 32.912 153.835 32.784 154.059 32.784ZM149.907 26.088C149.091 26.088 148.435 26.344 147.939 26.856C147.459 27.368 147.171 28.104 147.075 29.064H152.499C152.467 28.088 152.227 27.352 151.779 26.856C151.331 26.344 150.707 26.088 149.907 26.088ZM162.609 23.976C164.241 23.976 165.449 24.384 166.233 25.2C167.033 26 167.433 27.224 167.433 28.872V34.728C167.433 35.16 167.305 35.504 167.049 35.76C166.793 36 166.441 36.12 165.993 36.12C165.577 36.12 165.233 35.992 164.961 35.736C164.705 35.48 164.577 35.144 164.577 34.728V34.2C164.305 34.824 163.873 35.312 163.281 35.664C162.705 36.016 162.033 36.192 161.265 36.192C160.481 36.192 159.769 36.032 159.129 35.712C158.489 35.392 157.985 34.952 157.617 34.392C157.249 33.832 157.065 33.208 157.065 32.52C157.065 31.656 157.281 30.976 157.713 30.48C158.161 29.984 158.881 29.624 159.873 29.4C160.865 29.176 162.233 29.064 163.977 29.064H164.577V28.512C164.577 27.728 164.409 27.16 164.073 26.808C163.737 26.44 163.193 26.256 162.441 26.256C161.977 26.256 161.505 26.328 161.025 26.472C160.545 26.6 159.977 26.792 159.321 27.048C158.905 27.256 158.601 27.36 158.409 27.36C158.121 27.36 157.881 27.256 157.689 27.048C157.513 26.84 157.425 26.568 157.425 26.232C157.425 25.96 157.489 25.728 157.617 25.536C157.761 25.328 157.993 25.136 158.313 24.96C158.873 24.656 159.537 24.416 160.305 24.24C161.089 24.064 161.857 23.976 162.609 23.976ZM161.865 34.032C162.665 34.032 163.313 33.768 163.809 33.24C164.321 32.696 164.577 32 164.577 31.152V30.648H164.145C163.073 30.648 162.241 30.696 161.649 30.792C161.057 30.888 160.633 31.056 160.377 31.296C160.121 31.536 159.993 31.864 159.993 32.28C159.993 32.792 160.169 33.216 160.521 33.552C160.889 33.872 161.337 34.032 161.865 34.032Z" fill="white"/>
</svg>
