<svg width="157" height="67" viewBox="0 0 157 67" fill="none" xmlns="http://www.w3.org/2000/svg">
<path d="M8.84511 34.2004C8.60847 32.8215 8.31473 31.4832 7.63747 30.4144C6.71542 28.9619 5.09981 27.9746 1.90121 27.9502L1.85225 29.7697C2.98645 29.7371 4.07985 29.8432 5.00189 30.4306C5.79338 30.9285 6.45432 31.7525 6.96022 33.1234C4.17777 32.1768 2.60294 32.4625 1.48506 33.1805C0.905726 33.5559 0.448784 34.0536 0 34.5594L1.26475 35.7182C1.33819 35.612 1.41979 35.5142 1.48506 35.4245C2.83958 33.817 4.41439 33.8659 6.07898 34.7554C2.48055 36.4933 1.90121 39.5369 2.08888 41.7318C2.25208 41.7563 3.85953 41.7318 3.85953 41.7318C3.70451 39.594 5.23036 36.7299 8.39633 35.865L8.86958 34.894L8.84511 34.2004Z" fill="white" fill-opacity="0.4"/>
<path d="M32.541 15.3598C37.8774 7.95894 40.5049 4.28708 38.3995 2.50827C37.0043 1.34143 35.1194 2.16556 32.0758 4.44211C31.9698 6.8737 31.3822 10.3334 30.5989 14.9274L32.541 15.3598Z" fill="white" fill-opacity="0.4"/>
<path d="M35.9191 59.7407H33.9608C33.9119 62.5395 33.9852 65.4198 30.9988 66.3419C31.0967 66.35 31.2029 66.3664 31.3171 66.3744C31.6353 66.4071 31.9454 66.3826 32.2473 66.3173C35.96 65.3709 35.862 62.515 35.9191 59.7407Z" fill="white" fill-opacity="0.4"/>
<path d="M38.0321 59.7403L35.9677 54.8528H37.8934L36.2777 50.2344H33.6014L34.8499 54.8528H33.3647L34.9559 59.7403H35.9105H38.0321Z" fill="white" fill-opacity="0.4"/>
<path d="M30.9988 66.3419C33.9852 65.4198 33.9119 62.5557 33.9608 59.7407H26.8699C26.8292 63.9102 28.3306 65.9421 30.9988 66.3419Z" fill="white" fill-opacity="0.4"/>
<path d="M33.3568 54.8524H34.8336L33.5934 50.2503L26.3802 50.2178L24.7075 54.9993L26.5352 55.138L24.7075 59.74H34.9642L33.3568 54.8524Z" fill="white" fill-opacity="0.4"/>
<path d="M18.3999 55.0323L16.4905 50.1854L13.8141 50.1772L15.136 54.9343H13.6265L15.2584 59.8709L18.6447 59.9036L16.2865 55.016L18.3999 55.0323Z" fill="white" fill-opacity="0.4"/>
<path d="M13.6104 54.9181H15.12L13.8062 50.1611L6.48696 50.1284L4.71631 55.065L6.58488 55.2038L4.71631 59.8467L15.2342 59.8711L13.6104 54.9181Z" fill="white" fill-opacity="0.4"/>
<path d="M30.3131 0.068598C27.441 -0.624976 25.7681 3.96076 21.5986 12.9201L30.5987 14.9193C31.3739 10.3253 31.9695 6.86562 32.0756 4.43403C32.1898 1.83924 31.7329 0.427625 30.3131 0.068598Z" fill="white" fill-opacity="0.4"/>
<path d="M35.8128 45.5177L38.1873 45.6726L35.6579 40.6218H37.7384L35.8618 36.0278H34.2543H32.8589L34.548 40.6218H32.6714L34.9479 45.6726L32.81 45.5177L35.0865 50.2502L38.3342 50.2584L35.8128 45.5177Z" fill="white" fill-opacity="0.4"/>
<path d="M38.1875 31.2954L36.4414 26.4077H33.0632L34.4994 31.2954H32.4187L34.2464 36.0444H37.8694L35.6418 31.2954H38.1875Z" fill="white" fill-opacity="0.4"/>
<path d="M21.615 12.9287C21.5988 12.9532 21.5988 12.9287 21.615 12.9287L17.6168 20.8844L19.8282 20.9333L17.1763 26.4085H36.4168L33.9281 25.3559C33.5527 25.201 33.3243 24.899 33.4221 24.6949C33.4303 24.6705 33.4467 24.6623 33.4547 24.646C33.5691 24.4828 33.9117 24.4583 34.2545 24.5971L34.3605 24.646L36.1066 25.3885L37.6162 26.025V16.4944L21.615 12.9287Z" fill="white" fill-opacity="0.4"/>
<path d="M31.2927 22.0018C32.5004 22.0018 33.4877 21.0225 33.4877 19.7904C33.4877 18.5746 32.5084 17.5791 31.2927 17.5791C30.0851 17.5791 29.0977 18.5583 29.0977 19.7904C29.0977 21.0225 30.0931 22.0018 31.2927 22.0018ZM31.2927 18.697C31.8966 18.697 32.3942 19.1948 32.3942 19.7986C32.3942 20.4025 31.8966 20.9001 31.2927 20.9001C30.6889 20.9001 30.1911 20.4025 30.1911 19.7986C30.1993 19.1948 30.6889 18.697 31.2927 18.697Z" fill="white" fill-opacity="0.4"/>
<path d="M31.3657 20.8918C31.9695 20.8591 32.4265 20.3369 32.3938 19.725C32.3612 19.1212 31.8389 18.6478 31.2271 18.6969C30.6232 18.7295 30.1663 19.2516 30.1989 19.8637C30.2316 20.4675 30.7619 20.9325 31.3657 20.8918Z" fill="white" fill-opacity="0.4"/>
<path d="M37.5997 26.4079V26.0162L34.344 24.6208L34.238 24.5719C33.8952 24.4331 33.5689 24.4576 33.4382 24.6208C33.43 24.629 33.4138 24.6535 33.4056 24.6697C33.324 24.8738 33.5444 25.1758 33.9115 25.3307L36.4003 26.3833H36.4492L37.5997 26.4079Z" fill="white" fill-opacity="0.4"/>
<path d="M32.435 31.2954H34.4993L33.0715 26.4077H19.5018L17.4456 31.2954H19.51L17.5599 36.028H17.5844V36.0362C17.6333 36.0362 17.6823 36.0362 17.723 36.0362H32.8429H34.2464L32.435 31.2954Z" fill="white" fill-opacity="0.4"/>
<path d="M17.5514 36.0281L8.86137 34.8613L6.20947 40.2711H7.97196C7.80877 40.4915 7.62109 40.7444 7.44974 41.0056L9.88948 43.2984L13.0555 40.3038L16.1398 43.3718L19.3058 40.3773L22.4717 43.3718L25.5562 40.3038L25.654 40.4017L28.7139 43.2902L31.8799 40.2956L33.0875 41.487L32.7121 40.6383H34.5889L32.8998 36.0363H25.6295H17.6004H17.5759" fill="white" fill-opacity="0.4"/>
<path d="M32.8182 45.5183L34.9561 45.6571L34.5154 44.7023L31.8472 42.0342L28.6976 45.2002L25.5317 42.0342L22.3819 45.2083L19.2895 42.1157L16.1235 45.1104L13.0636 42.0668L9.91397 45.2328L6.76432 42.0831C6.56034 42.4258 5.32821 44.5719 4.89575 45.3879L7.30286 45.5265L5.16503 50.1285L35.1274 50.2591L32.8182 45.5183Z" fill="white" fill-opacity="0.4"/>
<path d="M33.0793 41.4708L31.8716 40.2632L28.7057 43.2578L25.5397 40.2632L22.4635 43.3312L19.2975 40.3367L16.1397 43.3312L13.0554 40.2632L9.88942 43.2578L7.44968 40.965C7.22937 41.3077 6.97642 41.6585 6.7561 42.0502L9.90573 45.1998L13.0554 42.0338L16.1153 45.0774L19.2812 42.0829L22.3737 45.1753L25.5397 42.0094L28.7057 45.1753L31.8554 42.0094L34.5235 44.6776L33.0793 41.4708Z" fill="white" fill-opacity="0.4"/>
<path d="M14.2711 59.8467C14.2221 62.67 14.3037 65.5585 11.3091 66.4887C11.4886 66.5132 11.6763 66.5376 11.8639 66.5458C12.019 66.554 12.1985 66.5458 12.3454 66.5132C12.4841 66.4805 12.6309 66.4397 12.7615 66.407C12.9492 66.3499 13.1532 66.2928 13.3164 66.2275C13.4306 66.1786 13.5367 66.1297 13.6591 66.0889C13.7325 66.0562 13.7978 66.0154 13.8631 65.9829C13.9283 65.9502 13.9936 65.9094 14.0507 65.8767C14.1486 65.8196 14.2384 65.7625 14.3363 65.6972C14.3934 65.6646 14.4424 65.6156 14.4995 65.583C14.6138 65.485 14.7361 65.3953 14.8423 65.2893C14.9483 65.1831 15.0543 65.0689 15.1605 64.9465C15.1931 64.8976 15.234 64.865 15.2665 64.8159C15.3155 64.7588 15.3482 64.7017 15.3808 64.6364C15.4542 64.5222 15.5195 64.3916 15.5848 64.2692C15.6174 64.2121 15.6419 64.1387 15.6827 64.0816C15.6908 64.049 15.7154 64.0081 15.7316 63.9755C15.7561 63.9266 15.7643 63.8695 15.7887 63.8204C15.7969 63.796 15.8132 63.7715 15.8132 63.7389C15.8458 63.6329 15.8867 63.5267 15.9111 63.4043C15.9111 63.3799 15.9193 63.3554 15.9193 63.3472C15.9438 63.2737 15.952 63.2086 15.9682 63.1351C15.9682 63.1269 15.9764 63.1024 15.9764 63.0861C15.9846 63.0044 16.0091 62.9229 16.0253 62.8249C16.0335 62.776 16.0335 62.7271 16.0498 62.6863C16.058 62.6374 16.058 62.5801 16.0744 62.5312C16.107 62.2864 16.1315 62.058 16.1477 61.7968C16.1722 61.4868 16.1804 61.1931 16.1804 60.8912C16.1886 60.5567 16.1886 60.2383 16.2049 59.912L14.2711 59.8467Z" fill="white" fill-opacity="0.4"/>
<path d="M7.1641 59.8384C7.15594 60.6542 7.19675 61.3886 7.30281 62.0496C7.33546 62.3106 7.38441 62.5474 7.44153 62.784C7.47416 62.9391 7.52312 63.094 7.55576 63.2328C8.16774 65.1911 9.44066 66.2192 11.2766 66.5047C14.2712 65.5746 14.1896 62.6778 14.2386 59.8628H7.1641V59.8384Z" fill="white" fill-opacity="0.4"/>
<path d="M44.748 21.5693C44.0299 23.389 41.6473 24.8659 37.5674 25.2249V26.0165V26.4081C37.853 26.3999 38.0979 26.3755 38.3671 26.3591C38.6853 26.3346 38.979 26.302 39.2728 26.2531C39.5421 26.2204 39.795 26.1715 40.0398 26.1225C41.1414 25.9022 42.047 25.5595 42.7814 25.127C42.9365 25.0292 43.0997 24.9394 43.2302 24.8333C43.3037 24.7844 43.3608 24.7353 43.4342 24.6782C43.6219 24.5231 43.8096 24.3436 43.9646 24.1805C44.0706 24.0744 44.1523 23.9602 44.2501 23.8296C44.4542 23.5196 44.6174 23.2177 44.7071 22.8994C44.8295 22.4751 44.8459 22.0263 44.748 21.5693Z" fill="white" fill-opacity="0.4"/>
<path d="M38.4732 16.7063C38.1875 16.6329 37.9101 16.5512 37.6001 16.4941V18.9747V21.4553V25.2414C41.6636 24.8742 44.0462 23.3892 44.7805 21.5858C44.4053 19.7172 42.3083 17.7753 38.4732 16.7063Z" fill="white" fill-opacity="0.4"/>
<path d="M77.1909 25.1764C78.5861 26.4003 79.2961 28.0893 79.2961 30.268C79.2961 32.4385 78.6025 34.1275 77.1909 35.3596C75.7955 36.5837 73.8616 37.2038 71.3975 37.2038H66.877V44.8004H62.3892V23.3486H71.3975C73.8616 23.3486 75.7873 23.9605 77.1909 25.1764ZM74.7347 30.268C74.7347 28.016 73.3884 26.8899 70.7121 26.8899H66.877V33.6543H70.7121C73.3884 33.6543 74.7347 32.52 74.7347 30.268Z" fill="white" fill-opacity="0.4"/>
<path d="M81.4258 23.8382C81.4258 22.2309 82.3478 21.4312 84.1919 21.4312C86.036 21.4312 86.958 22.2309 86.958 23.8382C86.958 25.4213 86.036 26.2127 84.1919 26.2127C82.3478 26.2127 81.4258 25.4131 81.4258 23.8382ZM86.395 44.8004H81.9481V28.5464H86.395V44.8004Z" fill="white" fill-opacity="0.4"/>
<path d="M104.069 29.7459C105.146 30.7577 105.676 32.2264 105.676 34.1358V44.8005H101.229V35.4005C101.229 32.9608 100.25 31.7287 98.3 31.7287C97.2638 31.7287 96.3908 32.0959 95.6645 32.8139C94.9465 33.5484 94.5875 34.6661 94.5875 36.1757V44.8005H90.1404V28.5465H94.1386L94.3018 31.5654C94.8241 30.4558 95.5503 29.6317 96.5132 29.0604C97.4678 28.4974 98.5693 28.2119 99.834 28.2119C101.572 28.2282 102.992 28.734 104.069 29.7459Z" fill="white" fill-opacity="0.4"/>
<path d="M125.17 41.9041L124.909 44.6702C124.346 44.9559 123.644 45.0945 122.796 45.0945C121.841 45.0701 121.025 44.8742 120.34 44.4825C119.654 44.0908 119.197 43.5279 118.96 42.7934C118.463 43.5279 117.737 44.1072 116.79 44.5152C115.835 44.9313 114.84 45.1272 113.803 45.1272C112.115 45.1272 110.793 44.7518 109.846 43.9929C108.9 43.2341 108.426 42.1489 108.426 40.7454C108.426 39.5541 108.818 38.5749 109.585 37.8079C110.352 37.0409 111.47 36.4941 112.947 36.2004L118.544 35.0663V34.4543C118.544 33.5485 118.283 32.8223 117.753 32.292C117.222 31.7615 116.529 31.5005 115.648 31.5005C113.869 31.5005 112.718 32.3817 112.204 34.1688L108.402 33.0018C108.794 31.5249 109.618 30.3663 110.866 29.5177C112.115 28.669 113.779 28.2529 115.835 28.2529C118.022 28.2529 119.752 28.7752 121.041 29.8032C122.314 30.8313 122.951 32.3164 122.951 34.2748V40.8271C122.951 41.6511 123.342 42.0672 124.117 42.0672C124.501 42.0754 124.852 42.0101 125.17 41.9041ZM117.524 41.2268C118.21 40.7291 118.552 39.9294 118.552 38.8197V37.816L115.142 38.5015C114.342 38.6566 113.763 38.8523 113.42 39.1134C113.077 39.3746 112.898 39.7743 112.898 40.321C112.898 40.8433 113.102 41.2432 113.485 41.5369C113.877 41.8306 114.358 41.9775 114.946 41.9775C115.974 41.9775 116.839 41.7164 117.524 41.2268Z" fill="white" fill-opacity="0.4"/>
<path d="M138.201 43.7971C137.654 44.2132 137.01 44.5313 136.227 44.7761C135.459 45.0128 134.643 45.127 133.77 45.127C130.09 45.127 128.246 43.4869 128.246 40.2148V31.8594H125.26V28.5384H128.246V24.793L132.693 23.5527V28.522H137.899V31.8512H132.693V39.4968C132.693 40.9982 133.436 41.7408 134.937 41.7408C135.916 41.7408 136.757 41.4307 137.475 40.835L138.201 43.7971Z" fill="white" fill-opacity="0.4"/>
<path d="M156.666 41.9041L156.405 44.6702C155.842 44.9559 155.14 45.0945 154.291 45.0945C153.336 45.0701 152.521 44.8742 151.836 44.4825C151.15 44.0908 150.694 43.5279 150.456 42.7934C149.959 43.5279 149.232 44.1072 148.287 44.5152C147.332 44.9313 146.336 45.1272 145.299 45.1272C143.61 45.1272 142.289 44.7518 141.342 43.9929C140.396 43.2341 139.922 42.1489 139.922 40.7454C139.922 39.5541 140.314 38.5749 141.081 37.8079C141.848 37.0409 142.966 36.4941 144.443 36.2004L150.041 35.0663V34.4543C150.041 33.5485 149.778 32.8223 149.248 32.292C148.718 31.7615 148.024 31.5005 147.143 31.5005C145.365 31.5005 144.214 32.3817 143.7 34.1688L139.898 33.0018C140.289 31.5249 141.114 30.3663 142.362 29.5177C143.61 28.669 145.275 28.2529 147.332 28.2529C149.518 28.2529 151.249 28.7752 152.537 29.8032C153.809 30.8313 154.446 32.3164 154.446 34.2748V40.8271C154.446 41.6511 154.839 42.0672 155.613 42.0672C155.997 42.0754 156.348 42.0101 156.666 41.9041ZM149.02 41.2268C149.705 40.7291 150.048 39.9294 150.048 38.8197V37.816L146.638 38.5015C145.838 38.6566 145.259 38.8523 144.916 39.1134C144.573 39.3746 144.394 39.7743 144.394 40.321C144.394 40.8433 144.598 41.2432 144.981 41.5369C145.373 41.8306 145.854 41.9775 146.442 41.9775C147.47 41.9775 148.335 41.7164 149.02 41.2268Z" fill="white" fill-opacity="0.4"/>
</svg>
