<svg width="143" height="42" viewBox="0 0 143 42" fill="none" xmlns="http://www.w3.org/2000/svg">
<path opacity="0.4" d="M67.3359 28.2031L62.5097 20.5227C66.3498 19.6924 68.3737 17.409 68.3737 14.451C68.3737 9.57282 64.0147 7.23755 60.1224 7.23755H46.526V7.28944C48.2905 8.11974 49.38 9.88421 49.38 11.9081V29.4486C49.38 31.4725 48.2905 33.2369 46.526 34.0673V34.1192H58.2024V34.0673C56.4379 33.2369 55.4001 31.4725 55.4001 29.4486V20.7303C56.6456 20.8341 56.9568 21.6643 58.8251 25.1932L64.0664 34.1192H72.0582V34.0673C70.7088 33.3407 69.3598 31.4206 67.3359 28.2031ZM56.0746 7.7565C59.4479 7.7565 62.1981 10.7664 62.1981 14.8661C62.1981 18.9139 59.9147 20.4189 57.4757 20.4189C56.7491 20.4189 56.0228 20.367 55.4001 20.2632V7.7565H56.0746Z" fill="white" fill-opacity="0.5"/>
<path opacity="0.4" d="M91.7786 28.2864L82.5933 7.23755H82.5416L73.6675 28.9457C72.6297 31.4817 71.5398 33.054 70.2942 34.0684V34.1192H76.2621V34.0684C74.0826 33.2569 73.1486 31.786 74.1865 29.25L75.3282 26.4097H84.6173L85.7589 29.1993C86.7968 31.7353 85.9667 33.3077 83.7872 34.0684V34.1192H95.9824V34.0684C94.5291 33.3077 93.2319 31.6846 91.7786 28.2864ZM75.4837 25.9025L79.8949 15.0992L84.3061 25.9025H75.4837Z" fill="white" fill-opacity="0.5"/>
<path opacity="0.4" d="M116.429 28.2031L111.603 20.5227C115.443 19.6924 117.467 17.409 117.467 14.451C117.467 9.57282 113.108 7.23755 109.215 7.23755H95.619V7.28944C97.3835 8.11974 98.473 9.88421 98.473 11.9081V29.4486C98.473 31.4725 97.3835 33.2369 95.619 34.0673V34.1192H107.295V34.0673C105.531 33.2369 104.493 31.4725 104.493 29.4486V20.7303C105.738 20.8341 106.05 21.6643 107.918 25.1932L113.159 34.1192H121.151V34.0673C119.854 33.3407 118.453 31.4206 116.429 28.2031ZM105.168 7.7565C108.541 7.7565 111.291 10.7664 111.291 14.8661C111.291 18.9139 109.008 20.4189 106.569 20.4189C105.842 20.4189 105.116 20.367 104.493 20.2632V7.7565H105.168Z" fill="white" fill-opacity="0.5"/>
<path opacity="0.4" d="M120.892 34.1192H141.598L142.169 25.1932H142.117C140.56 30.0714 138.328 33.5483 134.541 33.5483H129.714V19.7442H131.115C133.762 19.7442 135.111 21.4568 136.253 24.9337H136.305V14.8142H136.253C134.956 17.9279 133.762 19.2253 131.115 19.2253H129.714V7.7565H134.541C137.706 7.7565 139.937 10.6626 141.442 15.4369H141.494L140.975 7.23755H120.84V7.28944C122.605 8.11974 123.694 9.88421 123.694 11.9081V29.4486C123.694 31.4725 122.605 33.2369 120.84 34.0673V34.1192H120.892Z" fill="white" fill-opacity="0.5"/>
<path d="M20.6782 41.3563C32.0984 41.3563 41.3563 32.0984 41.3563 20.6782C41.3563 9.25794 32.0984 0 20.6782 0C9.25794 0 0 9.25794 0 20.6782C0 32.0984 9.25794 41.3563 20.6782 41.3563Z" fill="white" fill-opacity="0.12"/>
<path fill-rule="evenodd" clip-rule="evenodd" d="M30.014 26.0856C30.014 32.2138 25.0703 34.1192 21.3625 34.1192C20.2211 34.1192 19.0523 33.9139 17.9197 33.715C16.8549 33.5281 15.8221 33.3467 14.8738 33.3467C13.2774 33.3467 12.3504 33.6557 11.6295 34.0677V23.7682H11.681C13.2774 27.5275 16.1612 33.6042 21.723 33.6042C24.5553 33.6042 26.5122 32.0593 26.5122 29.0209C26.5122 27.0715 24.9179 25.856 22.3324 24.718V18.0914C26.996 19.7646 30.014 21.8298 30.014 26.0856ZM19.7477 17.1149C16.2721 15.7368 14.5648 14.6796 14.5648 12.3873C14.5648 9.34893 16.8822 7.80403 19.5086 7.80403C23.0619 7.80403 25.8428 10.8424 28.7266 16.4041H28.7781L28.3146 7.59804C27.8511 7.70106 27.2332 7.80403 26.6667 7.80403C25.6859 7.80403 24.8533 7.68753 23.9433 7.56018C22.8465 7.40676 21.6373 7.23755 19.9205 7.23755C16.0583 7.23755 11.1145 9.45195 11.1145 15.2712C11.1145 18.8245 12.6594 21.2963 18.5301 23.2532C18.948 23.4031 19.3542 23.5498 19.7477 23.6946V17.1149Z" fill="white" fill-opacity="0.5"/>
<path d="M22.229 3.61853H19.6443V7.75417H22.229V3.61853Z" fill="white" fill-opacity="0.5"/>
<path d="M22.229 33.6019H19.6443V37.7376H22.229V33.6019Z" fill="white" fill-opacity="0.5"/>
</svg>
