<svg width="100" height="100" viewBox="0 0 100 100" fill="none" xmlns="http://www.w3.org/2000/svg">
<path d="M88.5416 91.6667H11.4583C9.74992 91.6667 8.33325 90.2501 8.33325 88.5417C8.33325 86.8334 9.74992 85.4167 11.4583 85.4167H88.5416C90.2499 85.4167 91.6666 86.8334 91.6666 88.5417C91.6666 90.2501 90.2499 91.6667 88.5416 91.6667Z" fill="white"/>
<path opacity="0.4" d="M85.7912 57.0832L55.6662 87.2082C49.7495 93.1248 40.2078 93.1248 34.3328 87.2498L15.1245 68.0415L66.6245 16.5415L85.8329 35.7498C91.7079 41.6248 91.7078 51.1665 85.7912 57.0832Z" fill="white"/>
<path d="M66.625 16.5418L15.0833 68.0418L11.2917 64.2502C5.41668 58.3752 5.41668 48.8335 11.3333 42.9168L41.4583 12.7918C47.375 6.87518 56.9167 6.87518 62.7917 12.7502L66.625 16.5418Z" fill="white"/>
<path d="M53.7086 73.3333L48.0836 78.9583C46.9169 80.125 45.0419 80.125 43.8752 78.9583C42.7086 77.7917 42.7086 75.9167 43.8752 74.75L49.5002 69.125C50.6669 67.9583 52.5419 67.9583 53.7086 69.125C54.8752 70.2917 54.8752 72.1667 53.7086 73.3333Z" fill="white"/>
<path d="M71.9587 55.0833L60.7503 66.2917C59.5837 67.4583 57.7087 67.4583 56.542 66.2917C55.3753 65.125 55.3753 63.25 56.542 62.0833L67.7503 50.875C68.917 49.7083 70.792 49.7083 71.9587 50.875C73.0837 52.0417 73.0837 53.9167 71.9587 55.0833Z" fill="white"/>
</svg>
